<svg width="110" height="130" viewBox="0 0 110 130" fill="none" xmlns="http://www.w3.org/2000/svg">
<path d="M0 129.5V0H110V129.5L55 103.5L0 129.5Z" fill="#E94560"/>
<path d="M44.172 48.1V60H41.962V54.9H35.808V60H33.598V48.1H35.808V53.013H41.962V48.1H44.172ZM52.9197 60.17C51.707 60.17 50.6134 59.9093 49.6387 59.388C48.664 58.8553 47.899 58.1243 47.3437 57.195C46.7884 56.2543 46.5107 55.206 46.5107 54.05C46.5107 52.894 46.7884 51.8513 47.3437 50.922C47.899 49.9813 48.664 49.2503 49.6387 48.729C50.6134 48.1963 51.707 47.93 52.9197 47.93C54.1324 47.93 55.226 48.1963 56.2007 48.729C57.1754 49.2503 57.9404 49.9757 58.4957 50.905C59.051 51.8343 59.3287 52.8827 59.3287 54.05C59.3287 55.2173 59.051 56.2657 58.4957 57.195C57.9404 58.1243 57.1754 58.8553 56.2007 59.388C55.226 59.9093 54.1324 60.17 52.9197 60.17ZM52.9197 58.232C53.713 58.232 54.427 58.0563 55.0617 57.705C55.6964 57.3423 56.195 56.8437 56.5577 56.209C56.9204 55.563 57.1017 54.8433 57.1017 54.05C57.1017 53.2567 56.9204 52.5427 56.5577 51.908C56.195 51.262 55.6964 50.7633 55.0617 50.412C54.427 50.0493 53.713 49.868 52.9197 49.868C52.1264 49.868 51.4124 50.0493 50.7777 50.412C50.143 50.7633 49.6444 51.262 49.2817 51.908C48.919 52.5427 48.7377 53.2567 48.7377 54.05C48.7377 54.8433 48.919 55.563 49.2817 56.209C49.6444 56.8437 50.143 57.3423 50.7777 57.705C51.4124 58.0563 52.1264 58.232 52.9197 58.232ZM63.9192 49.97H59.9752V48.1H70.0732V49.97H66.1292V60H63.9192V49.97ZM71.5878 48.1H74.1038L73.6788 56.056H71.9958L71.5878 48.1ZM72.8458 60.119C72.4492 60.119 72.1205 59.9943 71.8598 59.745C71.5992 59.4843 71.4688 59.167 71.4688 58.793C71.4688 58.419 71.5992 58.1073 71.8598 57.858C72.1205 57.6087 72.4492 57.484 72.8458 57.484C73.2312 57.484 73.5485 57.6087 73.7978 57.858C74.0585 58.1073 74.1888 58.419 74.1888 58.793C74.1888 59.167 74.0585 59.4843 73.7978 59.745C73.5485 59.9943 73.2312 60.119 72.8458 60.119Z" fill="#F6F9FC"/>
</svg>
